<?xml version="1.0" standalone="no"?>
<!DOCTYPE svg PUBLIC "-//W3C//DTD SVG 20010904//EN"
 "http://www.w3.org/TR/2001/REC-SVG-20010904/DTD/svg10.dtd">
<svg version="1.0" xmlns="http://www.w3.org/2000/svg"
 width="156.000000pt" height="156.000000pt" viewBox="0 0 156.000000 156.000000"
 preserveAspectRatio="xMidYMid meet">
<metadata>
Created by potrace 1.14, written by Peter Selinger 2001-2017
</metadata>
<g transform="translate(0.000000,156.000000) scale(0.100000,-0.100000)"
fill="#000000" stroke="none">
<path d="M539 1525 c-42 -7 -89 -19 -105 -26 -34 -17 -43 -48 -18 -66 15 -11
18 -26 15 -106 -6 -230 93 -410 276 -502 1 0 4 -13 7 -28 4 -24 0 -31 -26 -45
-109 -60 -186 -155 -230 -285 -25 -73 -27 -94 -25 -199 2 -101 0 -118 -15
-127 -21 -13 -23 -44 -5 -60 34 -28 169 -50 337 -55 194 -6 371 15 442 51 33
16 37 48 9 63 -18 9 -19 18 -14 104 10 172 -41 322 -148 428 -31 32 -75 64
-97 73 -37 15 -40 19 -36 47 2 17 5 32 6 33 2 1 24 14 50 28 112 64 205 216
223 362 8 63 8 139 0 175 -5 22 -2 31 14 40 32 16 27 55 -8 70 -91 37 -489 53
-652 25z"/>
</g>
</svg>
